<svg width="623" height="623" viewBox="0 0 623 623" fill="none" xmlns="http://www.w3.org/2000/svg">
<g filter="url(#filter0_dd_139_3)">
<path d="M9 307.5C9 140.434 144.434 5 311.5 5C478.566 5 614 140.434 614 307.5C614 474.566 478.566 610 311.5 610C144.434 610 9 474.566 9 307.5Z" fill="#011D3A" stroke="#EEEEEE" stroke-width="10"/>
<path d="M261.205 501.69C265.803 489.235 269.112 478.975 271.311 470.613C274.432 458.748 275.519 450.011 274.368 444.112C273.77 441.046 272.449 438.141 269.876 436.212C267.262 434.253 264.211 433.937 261.508 434.299C256.446 434.977 250.709 438.277 245.308 442.081C235.901 448.706 225.002 458.744 215.826 467.194C214.177 468.713 212.583 470.18 211.064 471.568C209.517 472.98 208.058 474.3 206.698 475.508L263.314 336.385L264.087 334.486L263.305 332.592L196.4 170.55C199.772 171.505 204.774 174.071 211.402 177.587C211.782 177.789 212.167 177.993 212.555 178.199C218.918 181.578 226.295 185.496 233.844 188.613C241.818 191.905 250.426 194.5 258.683 194.5C275.622 194.5 286.317 183.7 292.314 176.324C292.673 175.883 293.02 175.448 293.353 175.024L383.959 353.493L385.834 357.187L389.812 356.031C391.965 355.406 394.074 354.793 396.141 354.192C430.871 344.098 453.444 337.538 464.885 335.87C465.282 335.812 465.657 335.761 466.009 335.718C464.803 337.041 463.225 338.617 461.236 340.471C450.707 350.282 430.742 365.971 401.309 389.1C397.445 392.137 393.417 395.302 389.225 398.599C356.288 424.51 313.505 458.379 261.205 501.69ZM470.552 335.587C470.551 335.587 470.54 335.584 470.52 335.578C470.543 335.583 470.553 335.587 470.552 335.587ZM468.728 332.115C468.733 332.097 468.737 332.088 468.737 332.089C468.737 332.089 468.734 332.098 468.728 332.115Z" fill="url(#paint0_linear_139_3)" stroke="#F1F3F5" stroke-width="10" stroke-linecap="round"/>
</g>
<rect x="239" y="213" width="13" height="39" fill="black"/>
<rect x="239" y="213" width="13" height="39" fill="black"/>
<rect x="239" y="213" width="13" height="39" fill="black"/>
<rect x="239" y="213" width="13" height="39" fill="black"/>
<rect x="239" y="213" width="13" height="39" fill="black"/>
<rect x="277" y="213" width="13" height="39" fill="black"/>
<path d="M246.5 300.5C246.5 320.935 244.851 337.5 238.5 337.5C232.149 337.5 227 320.935 227 300.5C227 280.066 256.649 261 263 261C269.351 261 246.5 280.066 246.5 300.5Z" fill="white"/>
<defs>
<filter id="filter0_dd_139_3" x="0" y="0" width="623" height="623" filterUnits="userSpaceOnUse" color-interpolation-filters="sRGB">
<feFlood flood-opacity="0" result="BackgroundImageFix"/>
<feColorMatrix in="SourceAlpha" type="matrix" values="0 0 0 0 0 0 0 0 0 0 0 0 0 0 0 0 0 0 127 0" result="hardAlpha"/>
<feOffset dy="4"/>
<feGaussianBlur stdDeviation="2"/>
<feComposite in2="hardAlpha" operator="out"/>
<feColorMatrix type="matrix" values="0 0 0 0 0 0 0 0 0 0 0 0 0 0 0 0 0 0 0.25 0"/>
<feBlend mode="normal" in2="BackgroundImageFix" result="effect1_dropShadow_139_3"/>
<feColorMatrix in="SourceAlpha" type="matrix" values="0 0 0 0 0 0 0 0 0 0 0 0 0 0 0 0 0 0 127 0" result="hardAlpha"/>
<feOffset dy="4"/>
<feGaussianBlur stdDeviation="2"/>
<feComposite in2="hardAlpha" operator="out"/>
<feColorMatrix type="matrix" values="0 0 0 0 0 0 0 0 0 0 0 0 0 0 0 0 0 0 0.25 0"/>
<feBlend mode="normal" in2="effect1_dropShadow_139_3" result="effect2_dropShadow_139_3"/>
<feBlend mode="normal" in="SourceGraphic" in2="effect2_dropShadow_139_3" result="shape"/>
</filter>
<linearGradient id="paint0_linear_139_3" x1="205.627" y1="138.504" x2="205.627" y2="533.13" gradientUnits="userSpaceOnUse">
<stop stop-color="#E1EDF5" stop-opacity="0.29"/>
<stop offset="1" stop-color="#005999"/>
</linearGradient>
</defs>
</svg>
